<?xml version="1.0" encoding="utf-8"?>
<!-- Generator: Adobe Illustrator 17.1.0, SVG Export Plug-In . SVG Version: 6.00 Build 0)  -->
<!DOCTYPE svg PUBLIC "-//W3C//DTD SVG 1.1//EN" "http://www.w3.org/Graphics/SVG/1.1/DTD/svg11.dtd">
<svg version="1.1" id="Layer_1" xmlns="http://www.w3.org/2000/svg" xmlns:xlink="http://www.w3.org/1999/xlink" x="0px" y="0px"
	 viewBox="0 0 740.6 410.6" enable-background="new 0 0 740.6 410.6" xml:space="preserve">
<g>
	<g>
		<path fill="#FFFFFF" d="M415.2,215.2V86.6h14.6v112.6h31.1v16.1H415.2z"/>
		<path fill="#FFFFFF" d="M469.3,181V86.6h14.5v94c0,13.3,4.6,20,13.8,20c9.5,0,14.3-6.3,14.3-19V86.6h14.5V181
			c0,12.7-2.4,21.8-7.1,27.4c-4.8,5.6-11.9,8.4-21.4,8.4c-8.8,0-15.7-3-20.8-9C471.8,201.8,469.3,192.8,469.3,181z"/>
		<path fill="#FFFFFF" d="M535.6,215.2V86.6H549l28.8,89.3V86.6h13.8v128.6h-13.6l-28.4-90v90H535.6z"/>
		<path fill="#FFFFFF" d="M647.7,212.3c-4.5,3-10.2,4.5-17.3,4.5c-10.2,0-17.9-6-23.1-18.1c-5.2-12.1-7.8-28-7.8-47.7
			c0-13,0.8-24.4,2.4-34c1.6-9.6,4.7-17.3,9.3-23.1c4.6-5.8,11-8.7,19.2-8.7c8.1,0,13.9,1.2,17.4,3.7v15.9
			c-4.2-2.9-9.5-4.3-16.1-4.3c-7.3,0-12.2,4.4-14.5,13.1c-2.3,8.7-3.5,21.1-3.5,37.2c0,33.4,5.5,50.1,16.6,50.1
			c7.1,0,12.9-1.8,17.3-5.3V212.3z"/>
		<path fill="#FFFFFF" d="M657.6,215.2V86.6h14.6v48.9H698V86.6h14.5v128.6H698v-63.4h-25.8v63.4H657.6z"/>
		<path fill="#FFFFFF" d="M466.1,344c0,9-2.1,16.5-6.4,22.5c-4.3,6-11.3,9-21,9h-24.3V246.9H438c17.4,0,26.1,8.6,26.1,25.8v11.5
			c0,12.4-4.8,20.7-14.5,25.1c11,3.9,16.4,12.5,16.4,25.6V344z M436.9,302.1c8.9,0,13.3-5.9,13.3-17.8v-7.6
			c0-9.7-4.5-14.5-13.5-14.5H429v39.9H436.9z M451.4,341.6V335c0-12.4-4.7-18.6-14-18.6H429v42.9h9c4.3,0,7.6-1.3,9.9-3.8
			C450.2,352.9,451.4,348.3,451.4,341.6z"/>
		<path fill="#FFFFFF" d="M504.1,245.5c12.4,0,20.7,5.7,24.9,17.1c4.2,11.4,6.3,27.6,6.3,48.6c0,20-2.5,35.9-7.5,47.9
			c-5,11.9-12.9,17.9-23.7,17.9c-10.6,0-18.4-6.1-23.4-18.2c-5-12.1-7.5-28-7.5-47.6c0-13.7,0.8-25.3,2.4-34.7
			c1.6-9.5,4.7-17,9.3-22.6C489.5,248.3,495.9,245.5,504.1,245.5z M504.1,261c-6.7,0-11.1,4.3-13.3,12.8c-2.2,8.5-3.3,21-3.3,37.3
			c0,33.4,5.5,50.1,16.6,50.1c11.3,0,16.9-16.7,16.9-50.1c0-16.3-1.1-28.7-3.4-37.3C515.4,265.3,510.9,261,504.1,261z"/>
		<path fill="#FFFFFF" d="M540.4,375.5l19.9-65.4l-18.7-63.2h14.6l11.7,42.3l11.8-42.3h14.6l-19.1,63.2l19.9,65.4h-15.3l-12-44.6
			l-12,44.6H540.4z"/>
	</g>
	<path fill="#87AD3F" d="M359.4,23H126.4c-6.9,0-13.1,2.1-18,6.4c0,0-0.1-0.2-0.1-0.2C103,33.7,97.8,38,92.5,42.5
		C82.2,51.3,71.9,60,61.7,68.8c-6.7,5.7-12.3,11.4-19,17.1c-6.5,4.6-9.7,12.1-9.7,20.7v245.6C33,366,42.1,378,56,378h245.6
		c6.7,0,12.7-2.9,17.3-7.2c0.4-0.2,0.8-0.6,1.1-0.9c5.9-5.1,11.7-10.4,17.6-15.5c9.9-8.7,19.9-17.4,29.8-26.1c2.9-2.5,6.9-5,9.8-7.5
		c7-5.4,12.8-14,12.8-23.8V51.4C390,35.2,374.9,23,359.4,23z M359.4,31c5.1,0,9.7,1.7,13.2,5c-4.5,4-9,7.8-13.6,11.7
		c-10.2,8.9-20.3,17.7-30.5,26.6c-4.3,3.8-8.6,7.8-12.9,11.6c-4-2.7-8.8-3.9-14-3.9H110V51.4c0-11.6,5.5-20.4,16.4-20.4H359.4z
		 M62,79.8C72.3,71,82.5,62.1,92.8,53.3c1.9-1.6,4.6-3.3,6.5-4.9c-0.1,1,0.7,1.9,0.7,3V82H59.8C60.6,82,61.3,80.4,62,79.8z
		 M327.9,352.6c0-0.2,1.1-0.3,1.1-0.5V328h27.7c-1.1,0-1.7,1.2-2.8,2.1C345.1,337.9,336.8,344.9,327.9,352.6z M380,297
		c0,6.7-3.4,12.7-8,16.5c-0.2,0.1-0.6,0.3-0.7,0.4c-0.1,0.1-0.3,0.6-0.4,0.7c-3.2,2.4-7.3,4.4-11.5,4.4H329V106.5
		c0-5.7-3-11-6.2-15.2c3.7-3.2,6.8-6.4,10.5-9.6c10.2-8.9,20-17.8,30.2-26.6c4.7-4.1,9.7-8.2,14.4-12.4c1.2,2.7,2.1,5.6,2.1,8.8V297
		z"/>
	<path fill="#FFFFFF" stroke="#FFFFFF" stroke-miterlimit="10" d="M200.8,139.4c0,0-36.7,17-45.6,89c-8.9,71.9,31,96.3,31,96.3
		l0,69.1l14.4,0L200.8,139.4z"/>
	<path fill="#FFFFFF" stroke="#FFFFFF" stroke-miterlimit="10" d="M299,234.8c-9.7-77-13.6-95.3-13.6-95.3l-2.5,0
		c0,0-5.5,87.3-4.1,113.3l-11.5,0.1l-2-23.7c-1.6-35.3-6.8-89.5-6.8-89.5l-2.1,0c0,0-4.2,51.6-5.4,83.8l-2.1,29.5l-11.5,0.1
		c1.1-26-5.5-113.2-5.5-113.2l-2.5,0c0,0-3.5,18.4-12.2,95.5c-8.8,77.1,34.4,102.8,34.4,102.8l0.2,55.5l14.5-0.1l-0.2-55.5
		C266.1,338,308.7,311.8,299,234.8z"/>
</g>
</svg>
